<?xml version="1.0" encoding="UTF-8"?>
<!DOCTYPE svg PUBLIC "-//W3C//DTD SVG 1.1//EN" "http://www.w3.org/Graphics/SVG/1.1/DTD/svg11.dtd">
<!-- Creator: CorelDRAW 2019 (64-Bit) -->
<svg xmlns="http://www.w3.org/2000/svg" xml:space="preserve" width="24.8345mm" height="6.2152mm" version="1.1" style="shape-rendering:geometricPrecision; text-rendering:geometricPrecision; image-rendering:optimizeQuality; fill-rule:evenodd; clip-rule:evenodd"
viewBox="0 0 414.71 103.79"
 xmlns:xlink="http://www.w3.org/1999/xlink">
 <defs>
  <style type="text/css">
   <![CDATA[
    .fil0 {fill:#FEFEFE}
   ]]>
  </style>
 </defs>
 <g id="Capa_x0020_1">
  <metadata id="CorelCorpID_0Corel-Layer"/>
  <path class="fil0" d="M44.34 83.35c0.22,0.58 0.33,1.07 0.33,1.46 0,0.93 -0.33,1.73 -1,2.4 -0.67,0.67 -1.49,1 -2.46,1 -0.67,0 -1.3,-0.19 -1.9,-0.57 -0.6,-0.38 -1.03,-0.9 -1.3,-1.56l-3.73 -9.32 -23.9 0 -3.8 9.32c-0.31,0.66 -0.75,1.19 -1.33,1.56 -0.58,0.38 -1.2,0.57 -1.87,0.57 -0.98,0 -1.79,-0.34 -2.43,-1.03 -0.64,-0.69 -0.97,-1.5 -0.97,-2.43 0,-0.44 0.11,-0.95 0.33,-1.53l18.71 -44.68c0.67,-1.55 1.75,-2.33 3.26,-2.33 1.6,0 2.69,0.78 3.26,2.33l18.78 44.81zm-31.63 -12.32l19.24 0 -9.52 -23.7 -9.72 23.7zm57.19 -19.51c3.42,0 6.54,0.81 9.35,2.43 2.82,1.62 5.03,3.84 6.62,6.66 1.6,2.82 2.4,5.96 2.4,9.42 0,3.46 -0.74,6.6 -2.23,9.42 -1.49,2.82 -3.53,5.03 -6.12,6.63 -2.6,1.6 -5.49,2.4 -8.69,2.4 -2.57,0 -4.97,-0.53 -7.19,-1.6 -2.22,-1.07 -4.1,-2.55 -5.66,-4.46l0 17.98c0,1.02 -0.31,1.84 -0.93,2.46 -0.62,0.62 -1.44,0.93 -2.46,0.93 -0.98,0 -1.79,-0.31 -2.43,-0.93 -0.64,-0.62 -0.97,-1.44 -0.97,-2.46l0 -30.36c0,-3.46 0.81,-6.6 2.43,-9.42 1.62,-2.82 3.82,-5.04 6.59,-6.66 2.77,-1.62 5.87,-2.43 9.29,-2.43zm0 30.96c2.22,0 4.23,-0.54 6.02,-1.63 1.8,-1.09 3.22,-2.57 4.26,-4.46 1.04,-1.89 1.56,-4.01 1.56,-6.36 0,-2.35 -0.52,-4.48 -1.56,-6.39 -1.04,-1.91 -2.46,-3.41 -4.26,-4.49 -1.8,-1.09 -3.81,-1.63 -6.02,-1.63 -2.22,0 -4.23,0.54 -6.03,1.63 -1.8,1.09 -3.21,2.58 -4.23,4.49 -1.02,1.91 -1.53,4.04 -1.53,6.39 0,2.35 0.51,4.47 1.53,6.36 1.02,1.89 2.43,3.37 4.23,4.46 1.8,1.09 3.81,1.63 6.03,1.63zm46.81 -30.96c3.42,0 6.54,0.81 9.35,2.43 2.82,1.62 5.03,3.84 6.63,6.66 1.6,2.82 2.4,5.96 2.4,9.42 0,3.46 -0.74,6.6 -2.23,9.42 -1.49,2.82 -3.53,5.03 -6.13,6.63 -2.6,1.6 -5.49,2.4 -8.69,2.4 -2.57,0 -4.97,-0.53 -7.19,-1.6 -2.22,-1.07 -4.11,-2.55 -5.66,-4.46l0 17.98c0,1.02 -0.31,1.84 -0.93,2.46 -0.62,0.62 -1.44,0.93 -2.46,0.93 -0.98,0 -1.79,-0.31 -2.43,-0.93 -0.64,-0.62 -0.97,-1.44 -0.97,-2.46l0 -30.36c0,-3.46 0.81,-6.6 2.43,-9.42 1.62,-2.82 3.82,-5.04 6.59,-6.66 2.78,-1.62 5.87,-2.43 9.29,-2.43zm0 30.96c2.22,0 4.23,-0.54 6.03,-1.63 1.8,-1.09 3.22,-2.57 4.26,-4.46 1.04,-1.89 1.56,-4.01 1.56,-6.36 0,-2.35 -0.52,-4.48 -1.56,-6.39 -1.04,-1.91 -2.46,-3.41 -4.26,-4.49 -1.8,-1.09 -3.81,-1.63 -6.03,-1.63 -2.22,0 -4.23,0.54 -6.02,1.63 -1.8,1.09 -3.21,2.58 -4.23,4.49 -1.02,1.91 -1.53,4.04 -1.53,6.39 0,2.35 0.51,4.47 1.53,6.36 1.02,1.89 2.43,3.37 4.23,4.46 1.8,1.09 3.81,1.63 6.02,1.63zm122.29 5.99c-3.02,0 -5.86,-0.47 -8.52,-1.4 -2.66,-0.93 -4.75,-2.15 -6.26,-3.66 -0.58,-0.58 -0.87,-1.27 -0.87,-2.06 0,-1.07 0.44,-1.93 1.33,-2.6 0.84,-0.62 1.62,-0.93 2.33,-0.93 0.89,0 1.73,0.4 2.53,1.2 0.84,0.93 2.11,1.74 3.79,2.43 1.69,0.69 3.49,1.03 5.39,1.03 2.53,0 4.49,-0.42 5.89,-1.27 1.4,-0.84 2.1,-1.98 2.1,-3.39 0,-1.38 -0.69,-2.52 -2.06,-3.43 -1.37,-0.91 -3.71,-1.67 -6.99,-2.3 -8.52,-1.64 -12.78,-5.15 -12.78,-10.52 0,-2.18 0.64,-4.02 1.93,-5.53 1.29,-1.51 2.97,-2.64 5.06,-3.4 2.09,-0.75 4.31,-1.13 6.66,-1.13 2.89,0 5.47,0.47 7.76,1.4 2.29,0.93 4.1,2.22 5.43,3.86 0.58,0.71 0.87,1.42 0.87,2.13 0,0.75 -0.38,1.44 -1.13,2.06 -0.49,0.36 -1.11,0.53 -1.86,0.53 -1.15,0 -2.2,-0.42 -3.13,-1.26 -1.11,-1.02 -2.29,-1.74 -3.53,-2.16 -1.24,-0.42 -2.75,-0.63 -4.53,-0.63 -2.04,0 -3.72,0.34 -5.03,1.03 -1.31,0.69 -1.96,1.65 -1.96,2.9 0,0.89 0.22,1.63 0.67,2.23 0.44,0.6 1.29,1.15 2.53,1.66 1.24,0.51 3.04,1.01 5.39,1.5 4.84,0.98 8.27,2.33 10.29,4.06 2.02,1.73 3.03,3.97 3.03,6.72 0,2.04 -0.55,3.89 -1.66,5.56 -1.11,1.66 -2.74,2.97 -4.89,3.93 -2.15,0.95 -4.74,1.43 -7.75,1.43zm41.01 -37.02c3.06,0 5.81,0.66 8.26,2 2.44,1.33 4.35,3.27 5.73,5.82 1.38,2.55 2.06,5.63 2.06,9.22l0 16.38c0,0.98 -0.32,1.79 -0.97,2.43 -0.64,0.64 -1.45,0.97 -2.43,0.97 -0.98,0 -1.79,-0.32 -2.43,-0.97 -0.64,-0.64 -0.97,-1.45 -0.97,-2.43l0 -16.38c0,-3.6 -0.97,-6.32 -2.9,-8.16 -1.93,-1.84 -4.5,-2.76 -7.69,-2.76 -1.87,0 -3.56,0.38 -5.09,1.13 -1.53,0.75 -2.73,1.78 -3.6,3.06 -0.87,1.29 -1.3,2.73 -1.3,4.33l0 18.78c0,0.98 -0.31,1.79 -0.93,2.43 -0.62,0.64 -1.44,0.97 -2.46,0.97 -0.98,0 -1.79,-0.32 -2.43,-0.97 -0.64,-0.64 -0.97,-1.45 -0.97,-2.43l0 -45.28c0,-1.02 0.32,-1.84 0.97,-2.46 0.64,-0.62 1.45,-0.93 2.43,-0.93 1.02,0 1.84,0.31 2.46,0.93 0.62,0.62 0.93,1.44 0.93,2.46l0 16.31c1.42,-1.42 3.11,-2.52 5.06,-3.3 1.95,-0.78 4.04,-1.16 6.26,-1.16zm43.88 0.07c3.42,0 6.51,0.81 9.29,2.43 2.78,1.62 4.97,3.84 6.59,6.66 1.62,2.82 2.43,5.96 2.43,9.42l0 14.85c0,0.98 -0.32,1.79 -0.97,2.43 -0.64,0.64 -1.45,0.97 -2.43,0.97 -0.98,0 -1.79,-0.32 -2.43,-0.97 -0.64,-0.64 -0.97,-1.45 -0.97,-2.43l0 -2.46c-1.55,1.91 -3.44,3.39 -5.66,4.46 -2.22,1.07 -4.62,1.6 -7.19,1.6 -3.2,0 -6.09,-0.8 -8.69,-2.4 -2.6,-1.6 -4.64,-3.81 -6.13,-6.63 -1.49,-2.82 -2.23,-5.96 -2.23,-9.42 0,-3.46 0.8,-6.6 2.4,-9.42 1.6,-2.82 3.81,-5.04 6.63,-6.66 2.82,-1.62 5.94,-2.43 9.35,-2.43zm0 30.96c2.22,0 4.23,-0.54 6.03,-1.63 1.8,-1.09 3.21,-2.57 4.23,-4.46 1.02,-1.89 1.53,-4.01 1.53,-6.36 0,-2.35 -0.51,-4.48 -1.53,-6.39 -1.02,-1.91 -2.43,-3.41 -4.23,-4.49 -1.8,-1.09 -3.81,-1.63 -6.03,-1.63 -2.22,0 -4.23,0.54 -6.02,1.63 -1.8,1.09 -3.22,2.58 -4.26,4.49 -1.04,1.91 -1.56,4.04 -1.56,6.39 0,2.35 0.52,4.47 1.56,6.36 1.04,1.89 2.46,3.37 4.26,4.46 1.8,1.09 3.81,1.63 6.02,1.63zm46.27 -31.09c2.35,0 4.19,0.35 5.53,1.07 1.33,0.71 2,1.6 2,2.66 0,0.31 -0.02,0.53 -0.07,0.66 -0.4,1.42 -1.29,2.13 -2.66,2.13 -0.22,0 -0.56,-0.05 -1,-0.13 -1.78,-0.31 -3.22,-0.47 -4.33,-0.47 -3.2,0 -5.77,0.73 -7.72,2.2 -1.95,1.46 -2.93,3.44 -2.93,5.93l0 19.44c0,1.07 -0.28,1.89 -0.83,2.46 -0.55,0.58 -1.39,0.87 -2.5,0.87 -1.07,0 -1.89,-0.28 -2.46,-0.83 -0.58,-0.55 -0.87,-1.39 -0.87,-2.5l0 -29.76c0,-1.07 0.29,-1.89 0.87,-2.46 0.58,-0.58 1.4,-0.87 2.46,-0.87 2.22,0 3.33,1.11 3.33,3.33l0 1.26c1.33,-1.55 2.97,-2.78 4.93,-3.66 1.95,-0.89 4.04,-1.33 6.26,-1.33zm44.54 18.04c0,0.84 -0.29,1.54 -0.87,2.1 -0.58,0.55 -1.31,0.83 -2.2,0.83l-25.3 0c0.49,3.11 1.9,5.62 4.23,7.52 2.33,1.91 5.18,2.86 8.55,2.86 1.33,0 2.72,-0.24 4.16,-0.73 1.44,-0.49 2.63,-1.09 3.56,-1.8 0.62,-0.49 1.35,-0.73 2.2,-0.73 0.84,0 1.51,0.22 2,0.66 0.8,0.67 1.2,1.42 1.2,2.26 0,0.8 -0.36,1.46 -1.07,2 -1.51,1.2 -3.38,2.17 -5.62,2.93 -2.24,0.75 -4.38,1.13 -6.43,1.13 -3.64,0 -6.9,-0.79 -9.79,-2.36 -2.89,-1.58 -5.14,-3.76 -6.76,-6.56 -1.62,-2.8 -2.43,-5.97 -2.43,-9.52 0,-3.55 0.77,-6.74 2.3,-9.56 1.53,-2.82 3.66,-5.02 6.39,-6.59 2.73,-1.58 5.83,-2.36 9.29,-2.36 3.42,0 6.37,0.75 8.86,2.26 2.48,1.51 4.39,3.62 5.73,6.33 1.33,2.71 2,5.81 2,9.32zm-16.58 -12.19c-3.24,0 -5.87,0.89 -7.89,2.66 -2.02,1.78 -3.3,4.15 -3.83,7.12l22.17 0c-0.4,-2.97 -1.51,-5.35 -3.33,-7.12 -1.82,-1.78 -4.19,-2.66 -7.12,-2.66zm-197.79 14.31c-4.12,0 -7.66,2.43 -9.32,5.92l-24.97 0c-0.12,-0.24 -0.25,-0.46 -0.38,-0.69l15.06 -16.22c0.89,0.25 1.81,0.43 2.78,0.43 5.71,0 10.35,-4.63 10.35,-10.35 0,-1.39 -0.28,-2.71 -0.78,-3.92 2.65,-3.28 4.63,-6.11 5.91,-8.45 2.26,-4.14 3.39,-8.58 3.39,-13.31 0,-6.73 -2.37,-12.58 -7.12,-17.53 -4.75,-4.96 -10.96,-7.43 -18.63,-7.43 -7.75,0 -14.26,2.64 -19.54,7.92 -5.27,5.28 -8.03,12.04 -8.25,20.27l7.99 0c0.49,-6.43 2.5,-11.42 6.04,-14.98 3.54,-3.55 7.97,-5.33 13.3,-5.33 5.07,0 9.35,1.69 12.85,5.08 3.5,3.39 5.25,7.43 5.25,12.12 0,3.71 -0.97,7.24 -2.92,10.59 -0.85,1.46 -2.15,3.28 -3.86,5.42 -1.23,-0.51 -2.57,-0.8 -3.98,-0.8 -5.72,0 -10.35,4.63 -10.35,10.35 0,1.83 0.51,3.52 1.34,5l-15.09 16.31c-0.87,-0.23 -1.76,-0.4 -2.69,-0.4 -5.72,0 -10.35,4.63 -10.35,10.35 0,5.72 4.63,10.35 10.35,10.35 4.44,0 8.19,-2.8 9.66,-6.72l24.29 0c1.48,3.92 5.23,6.72 9.66,6.72 5.71,0 10.35,-4.63 10.35,-10.35 0,-5.71 -4.63,-10.35 -10.35,-10.35z"/>
 </g>
</svg>
